<?xml version="1.0" standalone="no"?>
<!DOCTYPE svg PUBLIC "-//W3C//DTD SVG 20010904//EN"
 "http://www.w3.org/TR/2001/REC-SVG-20010904/DTD/svg10.dtd">
<svg version="1.0" xmlns="http://www.w3.org/2000/svg"
 width="4267.000000pt" height="4267.000000pt" viewBox="0 0 4267.000000 4267.000000"
 preserveAspectRatio="xMidYMid meet">
<metadata>
Created by potrace 1.11, written by Peter Selinger 2001-2013
</metadata>
<g transform="translate(0.000000,4267.000000) scale(0.100000,-0.100000)"
fill="#000000" stroke="none">
<path d="M0 21335 l0 -21335 21333 2 21332 3 3 21333 2 21332 -21335 0 -21335
0 0 -21335z m17390 15660 l0 -3145 -755 0 -755 0 0 3145 0 3145 755 0 755 0 0
-3145z m-9574 2795 c898 -72 1537 -422 1775 -972 185 -425 123 -944 -154
-1314 -64 -84 -219 -231 -307 -291 -98 -66 -234 -133 -350 -174 l-93 -33 84
-22 c580 -155 965 -556 1091 -1138 31 -141 33 -513 4 -651 -94 -450 -375 -806
-818 -1040 -302 -159 -677 -258 -1113 -295 -74 -6 -721 -10 -1692 -10 l-1573
0 0 2975 0 2975 1509 0 c944 0 1556 -4 1637 -10z m5459 -1320 c932 -138 1463
-650 1535 -1480 6 -70 10 -704 10 -1627 l0 -1513 -745 0 -745 0 0 253 0 252
-71 -77 c-299 -328 -739 -497 -1299 -498 -325 0 -576 51 -819 166 -143 67
-254 147 -371 264 -153 154 -253 316 -318 520 -56 174 -67 254 -67 485 0 229
9 294 66 470 154 482 589 789 1256 890 184 27 398 35 1012 35 l614 0 -6 91
c-9 117 -30 197 -74 282 -86 164 -227 265 -453 324 -129 34 -423 43 -610 19
-304 -40 -650 -143 -982 -291 -67 -30 -123 -53 -125 -51 -12 12 -412 1009
-408 1016 7 12 274 123 450 188 464 170 870 262 1330 302 55 5 228 7 385 5
232 -2 313 -7 435 -25z m7850 0 c932 -138 1463 -650 1535 -1480 6 -70 10 -704
10 -1627 l0 -1513 -745 0 -745 0 0 253 0 252 -71 -77 c-299 -328 -739 -497
-1299 -498 -325 0 -576 51 -819 166 -143 67 -254 147 -371 264 -153 154 -253
316 -318 520 -56 174 -67 254 -67 485 0 229 9 294 66 470 154 482 589 789
1256 890 184 27 398 35 1012 35 l614 0 -6 91 c-9 117 -30 197 -74 282 -86 164
-227 265 -453 324 -129 34 -423 43 -610 19 -304 -40 -650 -143 -982 -291 -67
-30 -123 -53 -125 -51 -12 12 -412 1009 -408 1016 7 12 274 123 450 188 464
170 870 262 1330 302 55 5 228 7 385 5 232 -2 313 -7 435 -25z m5852 15 c685
-90 1169 -518 1337 -1183 64 -251 60 -132 63 -1869 l4 -1583 -750 0 -750 0 -4
1303 c-3 1276 -3 1304 -24 1392 -69 300 -238 490 -508 571 -79 24 -107 27
-235 28 -106 0 -164 -4 -215 -17 -318 -79 -539 -287 -638 -603 -59 -186 -57
-138 -57 -1460 l0 -1214 -755 0 -755 0 0 2295 0 2295 755 0 755 0 2 -367 3
-366 39 59 c267 404 710 665 1226 723 127 14 381 12 507 -4z m4703 -6 c664
-61 1224 -349 1602 -824 80 -100 172 -245 162 -255 -11 -9 -1062 -620 -1079
-626 -7 -3 -28 16 -48 43 -46 63 -157 172 -231 227 -117 87 -277 153 -440 181
-478 82 -874 -158 -1030 -625 -54 -162 -70 -268 -70 -470 0 -300 57 -513 190
-718 124 -189 294 -311 512 -364 117 -29 316 -29 452 0 290 60 491 209 645
476 9 16 75 -19 566 -301 l557 -318 -24 -46 c-13 -26 -55 -93 -93 -150 -187
-279 -425 -484 -746 -644 -395 -196 -787 -275 -1305 -262 -389 9 -677 69 -989
204 -258 111 -453 244 -652 442 -405 406 -615 930 -636 1591 -19 592 128 1115
438 1555 83 117 337 371 454 454 358 251 753 391 1230 434 94 8 429 6 535 -4z
m4708 -4 c388 -41 717 -148 1005 -326 115 -72 189 -131 311 -249 358 -347 565
-796 647 -1410 21 -158 37 -595 25 -693 l-7 -57 -1594 0 -1594 0 30 -87 c142
-403 440 -648 857 -704 187 -25 448 6 642 76 173 63 386 191 523 316 l69 62
396 -397 397 -397 -111 -107 c-423 -410 -950 -636 -1612 -693 -178 -15 -560
-7 -722 16 -278 38 -554 118 -780 226 -232 111 -403 232 -580 409 -333 332
-529 744 -606 1275 -25 170 -26 601 -1 770 73 493 244 890 524 1216 383 445
910 696 1603 762 105 11 447 5 578 -8z m-24658 -9922 l0 -1408 46 90 c84 167
168 281 308 420 139 139 237 211 391 289 268 135 555 201 915 213 560 18 994
-130 1310 -447 199 -198 324 -427 399 -730 62 -253 61 -215 61 -1836 l0 -1474
-330 0 -329 0 -4 1393 c-4 1499 -2 1433 -56 1630 -115 420 -423 701 -874 799
-135 29 -480 32 -622 5 -222 -42 -433 -129 -597 -247 -274 -196 -479 -522
-563 -897 -49 -220 -48 -180 -52 -1470 l-4 -1213 -329 0 -330 0 0 3145 0 3145
330 0 330 0 0 -1407z m15360 -663 l0 -2070 842 847 c463 467 980 986 1148
1156 l305 307 391 -2 391 -3 -834 -858 -833 -858 123 -182 c68 -100 425 -627
792 -1172 367 -544 728 -1079 802 -1187 l134 -198 -398 0 -399 0 -758 1125
c-417 619 -762 1125 -767 1125 -4 0 -217 -217 -473 -482 l-466 -481 0 -644 0
-643 -330 0 -330 0 0 3145 0 3145 330 0 330 0 0 -2070z m-18935 1711 c489 -74
959 -259 1362 -538 110 -76 248 -186 320 -256 l51 -50 -200 -241 c-111 -132
-203 -243 -205 -245 -1 -2 -33 25 -70 61 -225 215 -559 419 -873 531 -628 225
-1306 187 -1905 -108 -705 -346 -1180 -989 -1301 -1765 -25 -160 -26 -519 -1
-679 82 -519 310 -967 681 -1336 347 -344 792 -571 1296 -662 132 -24 168 -27
410 -27 243 0 277 2 410 26 479 87 925 302 1278 616 41 36 77 61 81 56 5 -5
97 -105 205 -222 108 -117 196 -217 196 -221 0 -25 -252 -232 -414 -340 -550
-369 -1163 -561 -1791 -561 -716 0 -1394 233 -1945 670 -132 104 -372 344
-477 476 -328 414 -530 883 -616 1434 -18 114 -21 180 -21 425 0 251 3 309 22
432 82 525 289 997 612 1403 113 141 349 375 490 484 480 372 1034 592 1660
656 154 16 588 5 745 -19z m10645 -1466 c467 -74 814 -245 1100 -542 140 -145
224 -266 320 -458 181 -364 262 -744 264 -1240 l1 -240 -1823 -3 -1822 -2 4
-23 c3 -12 15 -71 26 -132 99 -506 404 -918 835 -1130 203 -99 383 -147 625
-165 537 -41 1079 149 1452 509 l58 55 123 -129 c67 -72 149 -158 181 -192
l58 -62 -23 -30 c-44 -60 -239 -226 -362 -310 -283 -191 -628 -320 -1009 -377
-162 -24 -525 -30 -692 -10 -421 49 -800 197 -1111 435 -85 64 -256 232 -328
321 -257 318 -416 710 -472 1163 -20 161 -20 495 0 657 130 1056 852 1781
1905 1916 143 18 547 12 690 -11z m5015 -3 c496 -77 897 -261 1233 -567 34
-31 62 -60 62 -65 0 -4 -81 -110 -180 -234 l-180 -226 -96 81 c-226 190 -467
315 -739 382 -186 47 -238 52 -495 52 -269 -1 -345 -11 -539 -75 -409 -133
-739 -444 -911 -857 -194 -466 -181 -1076 34 -1529 209 -440 582 -731 1071
-834 129 -27 415 -38 576 -21 447 47 835 227 1096 510 l52 56 190 -195 c105
-107 190 -198 191 -203 0 -4 -53 -61 -117 -126 -336 -337 -753 -538 -1275
-617 -163 -24 -515 -30 -682 -10 -615 71 -1132 354 -1477 807 -232 305 -383
694 -435 1119 -20 168 -15 569 10 725 62 388 214 750 434 1040 81 105 273 294
387 380 306 229 659 368 1072 420 158 20 547 13 718 -13z m9395 3 c467 -74
814 -245 1100 -542 140 -145 224 -266 320 -458 181 -364 262 -744 264 -1240
l1 -240 -1823 -3 -1822 -2 4 -23 c3 -12 15 -71 26 -132 99 -506 404 -918 835
-1130 203 -99 383 -147 625 -165 537 -41 1079 149 1452 509 l58 55 123 -129
c67 -72 149 -158 181 -192 l58 -62 -23 -30 c-44 -60 -239 -226 -362 -310 -283
-191 -628 -320 -1009 -377 -162 -24 -525 -30 -692 -10 -421 49 -800 197 -1111
435 -85 64 -256 232 -328 321 -257 318 -416 710 -472 1163 -20 161 -20 495 0
657 130 1056 852 1781 1905 1916 143 18 547 12 690 -11z m5098 -297 l-3 -323
-135 -6 c-145 -7 -240 -20 -362 -50 -512 -128 -882 -493 -1033 -1019 -74 -257
-69 -167 -73 -1537 l-3 -1233 -329 0 -330 0 0 2230 0 2230 330 0 330 0 0 -487
0 -488 58 107 c88 165 174 281 312 418 142 143 265 231 431 309 220 103 488
166 727 170 l82 1 -2 -322z m-21297 -6478 c363 -37 714 -186 993 -420 42 -36
325 -332 629 -659 2826 -3039 3024 -3250 3049 -3251 4 0 9 429 10 953 l3 952
28 88 c92 294 299 519 577 626 171 66 -372 61 6209 61 5823 0 5968 -1 6058
-19 173 -36 320 -113 450 -235 134 -126 215 -255 270 -433 l28 -88 3 -2287 2
-2287 23 -3 22 -3 0 -1280 0 -1280 -22 -3 -23 -3 0 -363 c0 -209 -4 -387 -11
-422 -34 -197 -132 -377 -280 -520 -119 -113 -233 -180 -396 -231 l-88 -28
-6040 0 -6040 0 -88 28 c-180 56 -307 136 -438 275 l-85 90 -47 -72 c-167
-254 -424 -447 -723 -544 -146 -48 -214 -57 -409 -57 -255 0 -392 32 -610 140
-365 182 -623 518 -717 935 -21 91 -22 123 -25 773 -4 631 -5 678 -21 673
-196 -59 -3485 -906 -3560 -916 -140 -19 -370 -8 -501 24 -393 98 -713 353
-893 710 -92 182 -133 347 -145 574 -5 106 -8 122 -22 118 -24 -8 -355 -43
-536 -58 -101 -8 -334 -13 -630 -13 -479 0 -612 6 -970 46 -378 42 -820 123
-1185 217 -102 26 -947 268 -1877 537 l-1693 490 0 3338 0 3337 38 1 c20 0
2148 112 4727 248 2580 137 4727 249 4771 250 45 0 128 -4 185 -9z m3269
-14635 c259 -39 547 -130 740 -232 184 -98 467 -301 456 -328 -3 -8 -134 -169
-292 -359 l-286 -345 -82 63 c-343 268 -679 381 -1076 363 -527 -24 -982 -416
-1121 -965 -66 -258 -55 -589 28 -837 126 -381 401 -669 761 -799 283 -102
686 -95 1001 16 99 35 159 63 254 121 l67 42 0 302 0 303 -467 2 -468 3 -3
403 -2 402 925 0 925 0 0 -920 0 -920 -77 -62 c-192 -152 -498 -329 -748 -431
-214 -88 -448 -143 -707 -168 -168 -15 -538 -7 -683 16 -716 111 -1293 520
-1599 1132 -155 310 -227 632 -227 1018 -1 282 28 473 106 710 261 797 942
1360 1790 1480 144 20 628 14 785 -10z m-16069 -56 c424 -43 747 -185 987
-433 233 -241 337 -508 349 -901 8 -276 -25 -477 -112 -678 -118 -272 -406
-544 -707 -668 -43 -18 -77 -38 -75 -43 4 -9 471 -694 934 -1368 l94 -138
-548 0 -549 0 -454 680 -455 679 -362 1 -363 0 0 -680 0 -680 -470 0 -470 0 0
2120 0 2120 1049 0 c667 0 1087 -4 1152 -11z m5069 -404 l0 -415 -1135 0
-1135 0 0 -430 0 -430 1000 0 1000 0 0 -415 0 -415 -1000 0 -1000 0 0 -445 0
-445 1150 0 1150 0 0 -415 0 -415 -1610 0 -1610 0 0 2120 0 2120 1595 0 1595
0 0 -415z m3790 -5 l0 -420 -1145 0 -1145 0 0 -455 0 -455 1008 -2 1007 -3 3
-422 2 -423 -1010 0 -1010 0 0 -820 0 -820 -470 0 -470 0 0 2120 0 2120 1615
0 1615 0 0 -420z m1313 -897 c3 -1313 3 -1318 25 -1413 72 -316 202 -499 437
-616 149 -74 218 -87 440 -88 166 -1 201 2 280 22 290 73 488 260 578 548 57
181 57 177 57 1578 l0 1286 470 0 471 0 -4 -1337 c-3 -1203 -5 -1350 -20
-1453 -67 -448 -217 -771 -476 -1031 -214 -213 -450 -341 -774 -419 -202 -48
-337 -63 -582 -64 -402 0 -682 59 -974 205 -460 231 -736 628 -830 1191 -38
228 -41 347 -41 1644 l0 1264 470 0 469 0 4 -1317z m11037 902 l0 -415 -1135
0 -1135 0 0 -430 0 -430 1000 0 1000 0 0 -415 0 -415 -1000 0 -1000 0 0 -445
0 -445 1150 0 1150 0 0 -415 0 -415 -1610 0 -1610 0 0 2120 0 2120 1595 0
1595 0 0 -415z m3760 0 l0 -415 -1135 0 -1135 0 0 -430 0 -430 995 0 995 0 0
-415 0 -415 -995 0 -995 0 0 -445 0 -445 1150 0 1150 0 0 -415 0 -415 -1615 0
-1615 0 0 2120 0 2120 1600 0 1600 0 0 -415z m11830 150 l0 -265 -5255 0
-5255 0 0 265 0 265 5255 0 5255 0 0 -265z m-1230 -1002 c146 -24 253 -58 395
-127 167 -81 278 -161 408 -295 262 -268 405 -609 423 -1005 28 -614 -292
-1173 -826 -1441 -116 -58 -238 -100 -372 -127 -149 -30 -452 -32 -593 -5
-329 64 -624 230 -834 469 -353 404 -468 987 -299 1518 75 234 191 425 367
601 351 350 821 496 1331 412z m-7950 -1498 l0 -1475 -165 0 -165 0 0 1475 0
1475 165 0 165 0 0 -1475z m977 1453 c11 -13 428 -542 927 -1176 l906 -1153 2
1173 3 1173 163 3 162 2 0 -1475 0 -1475 -133 0 -133 0 -944 1200 -945 1199
-3 -1199 -2 -1200 -165 0 -165 0 0 1468 c0 808 3 1472 7 1475 3 4 72 7 153 7
139 0 148 -1 167 -22z m4898 -138 l0 -155 -887 -3 -888 -2 0 -525 0 -525 795
0 795 0 0 -150 0 -150 -795 0 -795 0 -2 -637 -3 -638 -167 -3 -168 -2 0 1475
0 1475 1058 -2 1057 -3 0 -155z m-6817 -2567 l2 -223 -195 0 -195 0 0 225 0
225 193 -2 192 -3 3 -222z"/>
<path d="M6210 38010 l0 -580 618 0 c349 0 654 4 702 10 165 19 338 96 422
186 115 124 171 340 134 514 -36 168 -125 284 -276 358 -173 85 -248 92 -1017
92 l-583 0 0 -580z"/>
<path d="M6210 35685 l0 -625 668 0 c732 0 777 3 953 59 124 40 209 91 294
176 102 102 148 206 161 365 13 158 -38 292 -156 411 -60 61 -93 85 -170 123
-110 54 -247 91 -391 106 -58 6 -366 10 -730 10 l-629 0 0 -625z"/>
<path d="M12270 35789 c-106 -12 -228 -52 -297 -98 -105 -71 -161 -178 -171
-328 -16 -263 129 -458 393 -529 95 -25 284 -30 406 -9 102 17 238 59 314 97
156 79 291 212 363 356 l47 95 3 214 3 213 -493 -1 c-271 -1 -527 -5 -568 -10z"/>
<path d="M20120 35789 c-106 -12 -228 -52 -297 -98 -105 -71 -161 -178 -171
-328 -16 -263 129 -458 393 -529 95 -25 284 -30 406 -9 102 17 238 59 314 97
156 79 291 212 363 356 l47 95 3 214 3 213 -493 -1 c-271 -1 -527 -5 -568 -10z"/>
<path d="M35965 37423 c-70 -8 -179 -36 -237 -60 -139 -56 -288 -179 -377
-312 -82 -121 -162 -313 -196 -468 l-7 -33 882 0 882 0 -7 78 c-34 376 -226
643 -541 752 -107 38 -288 57 -399 43z"/>
<path d="M18240 27599 c-129 -10 -278 -42 -401 -85 -551 -191 -904 -653 -993
-1296 l-5 -38 1525 0 c838 0 1524 2 1524 5 0 3 -5 49 -11 103 -50 461 -257
834 -587 1060 -215 147 -460 229 -755 252 -136 11 -161 11 -297 -1z"/>
<path d="M32650 27599 c-129 -10 -278 -42 -401 -85 -551 -191 -904 -653 -993
-1296 l-5 -38 1525 0 c838 0 1524 2 1524 5 0 3 -5 49 -11 103 -50 461 -257
834 -587 1060 -215 147 -460 229 -755 252 -136 11 -161 11 -297 -1z"/>
<path d="M2950 5230 l0 -612 548 5 c474 4 557 6 622 21 234 55 384 179 452
375 20 58 23 85 23 216 -1 130 -4 159 -24 215 -57 163 -174 274 -351 334 -136
45 -170 48 -732 53 l-538 5 0 -612z"/>
<path d="M39283 5105 c-390 -71 -715 -356 -857 -753 -92 -257 -94 -591 -6
-854 168 -502 639 -826 1155 -795 537 33 942 394 1061 947 23 106 26 378 5
490 -89 496 -452 875 -924 965 -97 18 -332 19 -434 0z"/>
</g>
</svg>
